<svg width="145" height="45" viewBox="0 0 145 45" fill="none" xmlns="http://www.w3.org/2000/svg">
<rect width="45" height="45" rx="22.5" fill="#348B61"/>
<path fill-rule="evenodd" clip-rule="evenodd" d="M18.7612 33.7053C19.0282 33.4383 19.1782 33.0762 19.1782 32.6986C19.1782 32.321 19.0282 31.9589 18.7612 31.692C18.4942 31.425 18.1321 31.275 17.7546 31.275H12.0601C11.9772 31.2741 11.896 31.2515 11.8246 31.2095C11.7532 31.1674 11.694 31.1075 11.653 31.0355C11.612 30.9635 11.5905 30.882 11.5907 30.7991C11.591 30.7163 11.6129 30.6349 11.6543 30.5632L15.1541 24.5128L15.3036 25.0953C15.3477 25.2804 15.4285 25.4549 15.5412 25.6083C15.6539 25.7616 15.7962 25.8909 15.9598 25.9883C16.1233 26.0857 16.3047 26.1494 16.4933 26.1755C16.6818 26.2016 16.8737 26.1896 17.0575 26.1402C17.2414 26.0909 17.4134 26.0052 17.5636 25.8881C17.7137 25.7711 17.8388 25.6252 17.9316 25.459C18.0243 25.2927 18.0828 25.1096 18.1036 24.9204C18.1243 24.7312 18.1069 24.5397 18.0523 24.3574L17.0095 20.4697C16.9117 20.1053 16.6731 19.7946 16.3464 19.606C16.0196 19.4173 15.6313 19.3661 15.2668 19.4636L11.3791 20.5041C11.1951 20.5492 11.022 20.6306 10.8699 20.7435C10.7178 20.8564 10.5897 20.9986 10.4932 21.1616C10.3967 21.3246 10.3337 21.5052 10.308 21.6929C10.2822 21.8806 10.2941 22.0715 10.3431 22.2545C10.392 22.4375 10.477 22.6089 10.593 22.7587C10.7091 22.9084 10.8538 23.0335 11.0188 23.1266C11.1838 23.2197 11.3657 23.2789 11.5539 23.3008C11.742 23.3227 11.9327 23.3068 12.1146 23.254L12.6793 23.1034L9.18551 29.1396C8.89406 29.6444 8.74057 30.217 8.74048 30.7999C8.74038 31.3828 8.89368 31.9555 9.18496 32.4604C9.47625 32.9653 9.89526 33.3847 10.3999 33.6764C10.9046 33.9681 11.4772 34.1219 12.0601 34.1222H17.7546C18.1321 34.1222 18.4942 33.9723 18.7612 33.7053Z" fill="white"/>
<path fill-rule="evenodd" clip-rule="evenodd" d="M29.2645 25.4066C29.2645 26.9203 30.4709 28.1523 31.9747 28.1935L33.3457 30.5634C33.3873 30.6355 33.4092 30.7173 33.4093 30.8006C33.4093 30.8838 33.3874 30.9656 33.3458 31.0377C33.3042 31.1099 33.2444 31.1698 33.1723 31.2115C33.1002 31.2531 33.0185 31.2751 32.9352 31.2752H26.2254C25.7315 30.4934 24.8597 29.9741 23.8665 29.9741C22.3268 29.9741 21.0786 31.2223 21.0786 32.762C21.0786 34.3018 22.3268 35.55 23.8665 35.55C24.9122 35.55 25.8235 34.9742 26.3006 34.1225H32.94C33.5229 34.1221 34.0954 33.9683 34.6001 33.6766C35.1047 33.3849 35.5238 32.9655 35.8151 32.4606C36.1063 31.9557 36.2596 31.383 36.2595 30.8001C36.2594 30.2172 36.1059 29.6446 35.8145 29.1398H35.8097L34.4619 26.8099C34.7025 26.3978 34.8403 25.9183 34.8403 25.4066C34.8403 23.8669 33.5921 22.6187 32.0524 22.6187C30.5127 22.6187 29.2645 23.8669 29.2645 25.4066Z" fill="white"/>
<path fill-rule="evenodd" clip-rule="evenodd" d="M22.7382 12.3549C22.6658 12.3131 22.5835 12.2918 22.4999 12.2934C22.4164 12.2918 22.334 12.3131 22.2617 12.3549C22.1894 12.3967 22.1298 12.4575 22.0895 12.5306L19.3419 17.2761C19.2518 17.4443 19.1288 17.5928 18.9803 17.7126C18.8317 17.8323 18.6606 17.921 18.477 17.9733C18.2935 18.0257 18.1013 18.0406 17.9119 18.0171C17.7225 17.9937 17.5398 17.9324 17.3745 17.837C17.2093 17.7415 17.0649 17.6138 16.95 17.4614C16.8351 17.309 16.752 17.1351 16.7057 16.9499C16.6594 16.7648 16.6507 16.5722 16.6803 16.3837C16.7098 16.1952 16.777 16.0145 16.8778 15.8524L19.6254 11.107C19.9172 10.6031 20.3364 10.1847 20.841 9.89388C21.3455 9.60304 21.9176 9.44995 22.4999 9.44995C23.0823 9.44995 23.6544 9.60304 24.1589 9.89388C24.6634 10.1847 25.0826 10.6031 25.3745 11.107L28.8695 17.1503L29.0249 16.5737C29.1228 16.2088 29.3616 15.8976 29.6889 15.7087C30.0161 15.5198 30.405 15.4687 30.77 15.5665C31.135 15.6644 31.4462 15.9032 31.6351 16.2305C31.824 16.5578 31.8751 16.9467 31.7772 17.3117L30.7404 21.2017C30.6425 21.5661 30.404 21.8768 30.0772 22.0654C29.7504 22.254 29.3621 22.3052 28.9976 22.2078L25.1099 21.1649C24.9234 21.1225 24.7474 21.0429 24.5924 20.9309C24.4373 20.8189 24.3065 20.6768 24.2075 20.5132C24.1086 20.3495 24.0437 20.1675 24.0166 19.9782C23.9896 19.7889 24.001 19.596 24.0501 19.4112C24.0992 19.2264 24.185 19.0533 24.3025 18.9024C24.42 18.7515 24.5667 18.6258 24.7338 18.5328C24.9009 18.4398 25.0851 18.3814 25.2753 18.3612C25.4655 18.341 25.6578 18.3592 25.8407 18.415L26.4042 18.5656L22.9104 12.5306C22.8701 12.4575 22.8105 12.3967 22.7382 12.3549Z" fill="white"/>
<path d="M133.453 10.5091V7.62219H144.923V10.5091H140.954V20.8195H137.422V10.5091H133.453Z" fill="#242424"/>
<path d="M132.37 12.5712H128.735C128.709 12.2705 128.641 11.9977 128.529 11.7528C128.422 11.5079 128.271 11.2974 128.078 11.1213C127.889 10.9409 127.659 10.8034 127.388 10.7089C127.118 10.6101 126.811 10.5607 126.467 10.5607C125.866 10.5607 125.356 10.7067 124.94 10.9989C124.527 11.291 124.214 11.7099 123.999 12.2555C123.788 12.801 123.683 13.4562 123.683 14.2209C123.683 15.0285 123.791 15.7051 124.005 16.2507C124.224 16.792 124.54 17.2002 124.953 17.4751C125.365 17.7458 125.861 17.8811 126.441 17.8811C126.772 17.8811 127.068 17.8403 127.33 17.7586C127.593 17.6727 127.82 17.5503 128.014 17.3913C128.207 17.2324 128.364 17.0412 128.484 16.8178C128.609 16.5901 128.692 16.3345 128.735 16.051L132.37 16.0768C132.327 16.6352 132.17 17.2045 131.899 17.7844C131.629 18.3601 131.244 18.8928 130.746 19.3825C130.252 19.868 129.64 20.2589 128.909 20.5553C128.179 20.8518 127.33 21 126.364 21C125.152 21 124.066 20.7401 123.103 20.2203C122.145 19.7004 121.387 18.9357 120.828 17.9262C120.274 16.9166 119.997 15.6815 119.997 14.2209C119.997 12.7516 120.281 11.5144 120.848 10.5091C121.415 9.49956 122.18 8.73702 123.142 8.2215C124.104 7.70168 125.178 7.44177 126.364 7.44177C127.197 7.44177 127.964 7.55562 128.664 7.7833C129.365 8.01099 129.979 8.34393 130.507 8.78213C131.036 9.21602 131.461 9.75088 131.783 10.3867C132.105 11.0225 132.301 11.7507 132.37 12.5712Z" fill="#242424"/>
<path d="M108.942 20.8195V7.62219H118.453V10.5091H112.525V12.7774H117.964V15.6643H112.525V17.9326H118.427V20.8195H108.942Z" fill="#242424"/>
<path d="M107.429 7.62219V20.8195H104.439L99.67 13.8858H99.5927V20.8195H96.0098V7.62219H99.0514L103.743 14.5302H103.846V7.62219H107.429Z" fill="#242424"/>
<path d="M94.4965 7.62219V20.8195H91.5065L86.738 13.8858H86.6606V20.8195H83.0778V7.62219H86.1193L90.8106 14.5302H90.9137V7.62219H94.4965Z" fill="#242424"/>
<path d="M81.6015 14.2209C81.6015 15.6901 81.3158 16.9295 80.7444 17.9391C80.1731 18.9443 79.4019 19.7069 78.431 20.2267C77.4601 20.7422 76.3775 21 75.1833 21C73.9804 21 72.8935 20.7401 71.9226 20.2203C70.956 19.6961 70.187 18.9314 69.6156 17.9262C69.0486 16.9166 68.765 15.6815 68.765 14.2209C68.765 12.7516 69.0486 11.5144 69.6156 10.5091C70.187 9.49956 70.956 8.73702 71.9226 8.2215C72.8935 7.70168 73.9804 7.44177 75.1833 7.44177C76.3775 7.44177 77.4601 7.70168 78.431 8.2215C79.4019 8.73702 80.1731 9.49956 80.7444 10.5091C81.3158 11.5144 81.6015 12.7516 81.6015 14.2209ZM77.9155 14.2209C77.9155 13.4304 77.8103 12.7645 77.5998 12.2232C77.3935 11.6776 77.0864 11.2652 76.6783 10.986C76.2744 10.7024 75.7761 10.5607 75.1833 10.5607C74.5904 10.5607 74.0899 10.7024 73.6818 10.986C73.278 11.2652 72.9708 11.6776 72.7603 12.2232C72.5541 12.7645 72.451 13.4304 72.451 14.2209C72.451 15.0113 72.5541 15.6794 72.7603 16.225C72.9708 16.7663 73.278 17.1787 73.6818 17.4622C74.0899 17.7415 74.5904 17.8811 75.1833 17.8811C75.7761 17.8811 76.2744 17.7415 76.6783 17.4622C77.0864 17.1787 77.3935 16.7663 77.5998 16.225C77.8103 15.6794 77.9155 15.0113 77.9155 14.2209Z" fill="#242424"/>
<path d="M67.3725 12.5712H63.7381C63.7123 12.2705 63.6436 11.9977 63.5319 11.7528C63.4245 11.5079 63.2741 11.2974 63.0808 11.1213C62.8918 10.9409 62.6619 10.8034 62.3913 10.7089C62.1206 10.6101 61.8135 10.5607 61.4698 10.5607C60.8683 10.5607 60.3593 10.7067 59.9426 10.9989C59.5301 11.291 59.2165 11.7099 59.0017 12.2555C58.7912 12.801 58.686 13.4562 58.686 14.2209C58.686 15.0285 58.7934 15.7051 59.0082 16.2507C59.2273 16.792 59.543 17.2002 59.9554 17.4751C60.3679 17.7458 60.8641 17.8811 61.444 17.8811C61.7748 17.8811 62.0712 17.8403 62.3333 17.7586C62.5953 17.6727 62.823 17.5503 63.0164 17.3913C63.2097 17.2324 63.3665 17.0412 63.4868 16.8178C63.6114 16.5901 63.6951 16.3345 63.7381 16.051L67.3725 16.0768C67.3295 16.6352 67.1727 17.2045 66.9021 17.7844C66.6314 18.3601 66.247 18.8928 65.7486 19.3825C65.2546 19.868 64.6424 20.2589 63.9121 20.5553C63.1817 20.8518 62.3333 21 61.3667 21C60.1552 21 59.0683 20.7401 58.106 20.2203C57.148 19.7004 56.3898 18.9357 55.8313 17.9262C55.2771 16.9166 55 15.6815 55 14.2209C55 12.7516 55.2835 11.5144 55.8506 10.5091C56.4177 9.49956 57.1824 8.73702 58.1447 8.2215C59.107 7.70168 60.181 7.44177 61.3667 7.44177C62.2001 7.44177 62.9669 7.55562 63.6672 7.7833C64.3674 8.01099 64.9818 8.34393 65.5102 8.78213C66.0386 9.21602 66.4639 9.75088 66.7861 10.3867C67.1083 11.0225 67.3038 11.7507 67.3725 12.5712Z" fill="#242424"/>
<path d="M92.6568 30.7791C92.6568 32.2483 92.3711 33.4877 91.7997 34.4973C91.2284 35.5026 90.4572 36.2651 89.4863 36.7849C88.5154 37.3004 87.4328 37.5582 86.2386 37.5582C85.0357 37.5582 83.9488 37.2983 82.9779 36.7785C82.0113 36.2544 81.2423 35.4897 80.6709 34.4844C80.1039 33.4748 79.8203 32.2397 79.8203 30.7791C79.8203 29.3099 80.1039 28.0726 80.6709 27.0674C81.2423 26.0578 82.0113 25.2952 82.9779 24.7797C83.9488 24.2599 85.0357 24 86.2386 24C87.4328 24 88.5154 24.2599 89.4863 24.7797C90.4572 25.2952 91.2284 26.0578 91.7997 27.0674C92.3711 28.0726 92.6568 29.3099 92.6568 30.7791ZM88.9708 30.7791C88.9708 29.9886 88.8656 29.3228 88.6551 28.7815C88.4488 28.2359 88.1417 27.8234 87.7336 27.5442C87.3297 27.2607 86.8314 27.1189 86.2386 27.1189C85.6457 27.1189 85.1452 27.2607 84.7371 27.5442C84.3333 27.8234 84.0261 28.2359 83.8156 28.7815C83.6094 29.3228 83.5063 29.9886 83.5063 30.7791C83.5063 31.5696 83.6094 32.2376 83.8156 32.7832C84.0261 33.3245 84.3333 33.7369 84.7371 34.0204C85.1452 34.2997 85.6457 34.4393 86.2386 34.4393C86.8314 34.4393 87.3297 34.2997 87.7336 34.0204C88.1417 33.7369 88.4488 33.3245 88.6551 32.7832C88.8656 32.2376 88.9708 31.5696 88.9708 30.7791Z" fill="#242424"/>
<path d="M78.4278 29.1294H74.7934C74.7676 28.8287 74.6989 28.5559 74.5872 28.311C74.4798 28.0662 74.3294 27.8557 74.1361 27.6795C73.9471 27.4991 73.7172 27.3616 73.4466 27.2671C73.1759 27.1683 72.8688 27.1189 72.5251 27.1189C71.9236 27.1189 71.4146 27.265 70.9979 27.5571C70.5854 27.8492 70.2718 28.2681 70.057 28.8137C69.8465 29.3593 69.7413 30.0144 69.7413 30.7791C69.7413 31.5868 69.8487 32.2634 70.0635 32.809C70.2826 33.3503 70.5983 33.7584 71.0107 34.0333C71.4232 34.304 71.9194 34.4393 72.4993 34.4393C72.8301 34.4393 73.1265 34.3985 73.3886 34.3169C73.6506 34.2309 73.8783 34.1085 74.0717 33.9496C74.265 33.7906 74.4218 33.5994 74.5421 33.376C74.6666 33.1484 74.7504 32.8927 74.7934 32.6092L78.4278 32.635C78.3848 33.1935 78.228 33.7627 77.9574 34.3426C77.6867 34.9183 77.3022 35.451 76.8039 35.9408C76.3099 36.4262 75.6977 36.8171 74.9674 37.1136C74.237 37.41 73.3886 37.5582 72.422 37.5582C71.2105 37.5582 70.1236 37.2983 69.1613 36.7785C68.2033 36.2587 67.4451 35.494 66.8866 34.4844C66.3324 33.4748 66.0553 32.2397 66.0553 30.7791C66.0553 29.3099 66.3388 28.0726 66.9059 27.0674C67.473 26.0578 68.2377 25.2952 69.2 24.7797C70.1623 24.2599 71.2363 24 72.422 24C73.2554 24 74.0222 24.1138 74.7225 24.3415C75.4227 24.5692 76.0371 24.9022 76.5655 25.3404C77.0939 25.7743 77.5192 26.3091 77.8414 26.9449C78.1636 27.5807 78.3591 28.3089 78.4278 29.1294Z" fill="#242424"/>
<path d="M55 37.3778V24.1804H64.5114V27.0673H58.5829V29.3356H64.0216V32.2225H58.5829V34.4908H64.4856V37.3778H55Z" fill="#242424"/>
</svg>
